<?xml version="1.0" encoding="utf-8"?>
<!-- Generator: Adobe Illustrator 19.2.1, SVG Export Plug-In . SVG Version: 6.00 Build 0)  -->
<svg version="1.1" id="Layer_1" xmlns="http://www.w3.org/2000/svg" xmlns:xlink="http://www.w3.org/1999/xlink" x="0px" y="0px"
	 viewBox="0 0 61.9 90.1" style="enable-background:new 0 0 61.9 90.1;" xml:space="preserve">
<path d="M29.1,89.5c0.1,0.1,0.2,0.1,0.3,0.2c0.1,0,0.2,0.1,0.2,0.1c0.1,0,0.3,0.1,0.4,0.1c0.1,0,0.1,0,0.2,0.1
	c0.4,0.1,0.9,0.1,1.3,0c0.1,0,0.2,0,0.2-0.1c0.1,0,0.3-0.1,0.4-0.1c0.1,0,0.2-0.1,0.2-0.1c0.1-0.1,0.2-0.1,0.3-0.2
	c0.1-0.1,0.2-0.1,0.2-0.2c0.1,0,0.1-0.1,0.2-0.1l27.6-23.1c1.5-1.2,1.6-3.4,0.4-4.8c-1.2-1.5-3.4-1.6-4.8-0.4L34.3,79.2V3.4
	c0-1.9-1.5-3.4-3.4-3.4c-1.9,0-3.4,1.5-3.4,3.4v75.8L5.7,61c-1.5-1.2-3.6-1-4.8,0.4C0.3,62,0,62.8,0,63.6c0,1,0.4,2,1.2,2.6l27.4,23
	c0.1,0,0.1,0.1,0.2,0.1C28.9,89.4,29,89.5,29.1,89.5z"/>
</svg>
