<svg xmlns="http://www.w3.org/2000/svg" xmlns:xlink="http://www.w3.org/1999/xlink" x="0px" y="0px"
	 width="40px" height="40px" viewBox="0 0 40 40" enable-background="new 0 0 40 40" xml:space="preserve" stroke="#cccccc" stroke-linecap="round" stroke-width="1px">
<line x1="26.7" y1="25.6" x2="23.4" y2="28.3"/>
<line x1="29" y1="28.4" x2="31.2" y2="24.7"/>
<line x1="15.9" y1="24.7" x2="19.5" y2="27"/>
<line x1="17.4" y1="17.9" x2="16.4" y2="22.1"/>
<line x1="25.9" y1="29.7" x2="27.6" y2="33.6"/>
<line x1="34.4" y1="25.4" x2="37.7" y2="28.1"/>
<line x1="34.5" y1="29.9" x2="30.6" y2="32.2"/>
<line x1="36.6" y1="21.1" x2="32.5" y2="22"/>
<line x1="20.1" y1="21.3" x2="22.9" y2="24.5"/>
<line x1="23.2" y1="31.6" x2="21.5" y2="35.4"/>
<line x1="18.3" y1="37.9" x2="16.2" y2="33.5"/>
<line x1="29.3" y1="35.5" x2="26" y2="38.2"/>
<line x1="34.9" y1="35.5" x2="37.3" y2="32"/>
<line x1="20.7" y1="17.7" x2="23.8" y2="14.7"/>
<line x1="27.6" y1="5.7" x2="26.3" y2="9.8"/>
<line x1="33.1" y1="5.7" x2="33" y2="1.5"/>
<line x1="20.3" y1="8" x2="23.9" y2="11.8"/>
<line x1="16.4" y1="14.7" x2="20.3" y2="12.8"/>
<line x1="15.8" y1="6.5" x2="17.1" y2="10.6"/>
<line x1="29.4" y1="9.1" x2="33" y2="11.5"/>
<line x1="35.4" y1="-1.4" x2="38" y2="2"/>
<line x1="37.3" y1="4.9" x2="35.3" y2="9"/>
<line x1="31.8" y1="-3.2" x2="30.6" y2="1"/>
<line x1="19.8" y1="5.1" x2="24.6" y2="6.2"/>
<line x1="28.3" y1="13" x2="28.9" y2="17.2"/>
<line x1="28.6" y1="21.7" x2="25.4" y2="18.8"/>
<line x1="33.6" y1="15.1" x2="32.3" y2="19.1"/>
<line x1="37.7" y1="17.8" x2="36.8" y2="13.6"/>
<line x1="2.3" y1="31.9" x2="-1.1" y2="34.5"/>
<line x1="4" y1="34.5" x2="6.3" y2="30.9"/>
<line x1="1.3" y1="37.5" x2="2.9" y2="41.5"/>
<line x1="9.5" y1="31.6" x2="12.7" y2="34.4"/>
<line x1="9.8" y1="36.7" x2="5.6" y2="37.9"/>
<line x1="10.6" y1="24.6" x2="11.1" y2="28.9"/>
<line x1="4.6" y1="14.8" x2="1.3" y2="17.6"/>
<line x1="6" y1="18.4" x2="8.2" y2="14.7"/>
<line x1="7.8" y1="1.7" x2="8.7" y2="6.2"/>
<line x1="3.3" y1="19.5" x2="5" y2="23.4"/>
<line x1="11" y1="15.2" x2="14.3" y2="17.9"/>
<line x1="11.5" y1="20.2" x2="7.7" y2="22.1"/>
<line x1="13.7" y1="12.8" x2="9.6" y2="11.4"/>
<line x1="-1.6" y1="10.6" x2="1.4" y2="13.6"/>
<line x1="1.1" y1="21.9" x2="-0.6" y2="25.7"/>
<line x1="6.7" y1="25.7" x2="3.3" y2="28.4"/>
<line x1="1.3" y1="4.6" x2="6" y2="6.7"/>
<line x1="6.6" y1="9.2" x2="2.5" y2="10.4"/>
<line x1="13.2" y1="4.6" x2="11.9" y2="8.7"/>
<line x1="18.6" y1="29.4" x2="14.5" y2="30.8"/>
<line x1="26" y1="2.6" x2="22.8" y2="-1.5"/>
<line x1="35.4" y1="38.6" x2="38" y2="42"/>
<line x1="31.8" y1="36.9" x2="30.6" y2="41"/>
<line x1="12.3" y1="41.3" x2="13.6" y2="37.3"/>
<line x1="26" y1="42.6" x2="22.8" y2="38.5"/>
<line x1="1.3" y1="-2.5" x2="2.9" y2="1.5"/>
<line x1="12.3" y1="1.3" x2="13.6" y2="-2.7"/>
<line x1="20.2" y1="3.2" x2="16.6" y2="0.6"/>
<line x1="42.3" y1="31.9" x2="38.9" y2="34.5"/>
<line x1="38.4" y1="10.6" x2="41.4" y2="13.6"/>
<line x1="41.1" y1="21.9" x2="39.4" y2="25.7"/>
</svg>