<?xml version="1.0" standalone="no"?>
<!DOCTYPE svg PUBLIC "-//W3C//DTD SVG 20010904//EN"
 "http://www.w3.org/TR/2001/REC-SVG-20010904/DTD/svg10.dtd">
<svg version="1.0" xmlns="http://www.w3.org/2000/svg"
 width="700.000000pt" height="700.000000pt" viewBox="0 0 700.000000 700.000000"
 preserveAspectRatio="xMidYMid meet">
<metadata>
Created by potrace 1.11, written by Peter Selinger 2001-2013
</metadata>
<g transform="translate(0.000000,700.000000) scale(0.100000,-0.100000)"
fill="#000000" stroke="none">
<path d="M3729 6586 c-2 -2 -47 -7 -99 -11 -52 -3 -97 -8 -100 -10 -3 -2 -30
-6 -60 -9 -30 -3 -66 -8 -80 -11 -14 -3 -61 -12 -105 -21 -130 -25 -369 -96
-500 -149 -22 -9 -49 -20 -60 -24 -11 -4 -85 -40 -165 -79 -235 -114 -431
-240 -620 -398 -108 -90 -236 -211 -230 -217 3 -2 104 -46 225 -97 403 -170
784 -339 1165 -516 145 -67 637 -313 735 -367 44 -24 109 -59 145 -79 441
-239 957 -569 1370 -876 174 -129 420 -321 420 -327 0 -3 -19 4 -42 14 -362
163 -1454 603 -1878 757 -113 41 -216 80 -230 85 -91 39 -983 341 -1100 373
-30 8 -102 29 -160 46 -58 18 -118 35 -135 40 -16 4 -97 27 -180 50 -82 23
-157 43 -165 45 -8 2 -62 15 -120 30 -100 26 -155 39 -210 51 -14 3 -50 11
-80 19 -67 17 -472 101 -520 108 -19 3 -62 11 -95 17 -58 10 -92 15 -165 26
-19 2 -66 9 -105 15 -38 6 -86 12 -105 14 -19 3 -51 7 -70 10 -19 2 -60 7 -90
10 -30 4 -66 8 -80 10 -14 2 -68 6 -120 9 l-95 6 65 -21 c200 -64 459 -178
587 -259 136 -84 269 -204 307 -275 l19 -35 -32 -103 c-18 -56 -35 -113 -37
-127 -3 -14 -11 -45 -19 -70 -28 -92 -70 -339 -82 -485 -14 -168 -7 -572 11
-626 3 -8 7 -39 11 -69 8 -74 51 -288 77 -380 100 -355 244 -658 466 -976 115
-165 333 -405 487 -535 22 -19 42 -36 45 -40 13 -14 154 -121 225 -171 163
-113 316 -197 550 -303 127 -57 374 -136 535 -170 41 -9 82 -18 90 -20 8 -1
51 -8 95 -15 44 -7 88 -14 97 -15 132 -26 620 -26 768 0 14 2 48 7 75 10 71 8
226 40 336 70 52 14 102 27 112 30 127 30 434 162 607 260 160 90 392 251 485
335 17 15 64 59 105 96 418 384 735 905 879 1446 80 300 106 498 106 818 0
221 -17 440 -40 520 -2 8 -7 34 -10 57 -21 151 -117 462 -201 654 -241 548
-637 1020 -1127 1343 -429 282 -874 441 -1402 501 -62 7 -480 16 -486 11z"/>
</g>
</svg>
